<svg xmlns="http://www.w3.org/2000/svg" viewBox="0 0 96 96" fill="none">
  <!-- Radiating rays (gold) -->
  <line x1="48" y1="6" x2="48" y2="20" stroke="#C5A059" stroke-width="2.5" stroke-linecap="round"/>
  <line x1="76" y1="14" x2="67" y2="25" stroke="#C5A059" stroke-width="2.5" stroke-linecap="round"/>
  <line x1="88" y1="42" x2="74" y2="46" stroke="#C5A059" stroke-width="2.5" stroke-linecap="round"/>
  <line x1="80" y1="72" x2="68" y2="64" stroke="#C5A059" stroke-width="2.5" stroke-linecap="round"/>
  <line x1="20" y1="14" x2="29" y2="25" stroke="#C5A059" stroke-width="2.5" stroke-linecap="round"/>
  <line x1="8" y1="42" x2="22" y2="46" stroke="#C5A059" stroke-width="2.5" stroke-linecap="round"/>
  <line x1="16" y1="72" x2="28" y2="64" stroke="#C5A059" stroke-width="2.5" stroke-linecap="round"/>
  <!-- Outer petals (sage) -->
  <path d="M48 56 C42 44 36 40 38 28 C44 34 48 44 48 56Z" fill="#6BAF8A"/>
  <path d="M48 56 C54 44 60 40 58 28 C52 34 48 44 48 56Z" fill="#6BAF8A"/>
  <path d="M48 56 C36 54 28 60 24 72 C32 68 40 62 48 56Z" fill="#6BAF8A"/>
  <path d="M48 56 C60 54 68 60 72 72 C64 68 56 62 48 56Z" fill="#6BAF8A"/>
  <!-- Inner petals (teal) -->
  <path d="M48 54 C44 46 40 44 42 36 C46 40 48 47 48 54Z" fill="#3D7A6A"/>
  <path d="M48 54 C52 46 56 44 54 36 C50 40 48 47 48 54Z" fill="#3D7A6A"/>
  <path d="M48 54 C40 52 36 56 34 64 C38 60 43 57 48 54Z" fill="#3D7A6A"/>
  <path d="M48 54 C56 52 60 56 62 64 C58 60 53 57 48 54Z" fill="#3D7A6A"/>
  <!-- Center -->
  <circle cx="48" cy="52" r="8" fill="#4A4A35"/>
  <circle cx="48" cy="52" r="4" fill="#C5A059"/>
</svg>
